<?xml version="1.0" standalone="no"?>
<!DOCTYPE svg PUBLIC "-//W3C//DTD SVG 20010904//EN"
 "http://www.w3.org/TR/2001/REC-SVG-20010904/DTD/svg10.dtd">
<svg version="1.0" xmlns="http://www.w3.org/2000/svg"
 width="1024.000000pt" height="1024.000000pt" viewBox="0 0 1024.000000 1024.000000"
 preserveAspectRatio="xMidYMid meet">

<g transform="translate(0.000000,1024.000000) scale(0.100000,-0.100000)"
fill="#000000" stroke="none">
<path d="M2224 6790 c-188 -34 -382 -160 -500 -326 -36 -51 -55 -67 -111 -94
-51 -25 -90 -55 -158 -125 -157 -159 -227 -311 -229 -491 l-1 -100 -61 -67
c-73 -80 -127 -182 -155 -297 -30 -119 -24 -290 15 -405 15 -44 32 -85 37 -92
7 -8 7 -31 0 -69 -49 -263 63 -507 282 -620 66 -33 79 -44 88 -74 63 -196 239
-354 486 -436 96 -32 243 -42 335 -25 113 22 234 97 292 181 17 24 17 25 28 5
6 -11 32 -40 58 -65 169 -162 471 -173 731 -27 100 55 183 121 230 179 40 51
89 145 103 198 4 19 23 33 77 59 189 91 314 324 293 551 -11 124 -9 136 26
235 28 76 33 108 37 205 9 205 -45 361 -170 496 l-64 69 5 56 c2 33 -3 92 -12
139 -31 153 -106 281 -234 402 -63 60 -178 138 -203 138 -5 0 -30 33 -55 73
-129 200 -353 328 -584 331 -107 1 -158 -16 -219 -73 l-34 -32 -31 29 c-72 69
-178 94 -302 72z m192 -180 c14 -14 35 -43 45 -65 17 -38 19 -81 19 -753 l0
-713 -207 211 c-115 117 -216 226 -225 243 -10 18 -18 49 -18 69 0 33 4 39 33
52 67 28 126 113 127 181 0 125 -109 226 -230 212 -138 -17 -222 -144 -180
-272 15 -46 61 -99 99 -114 25 -11 29 -18 35 -73 11 -108 26 -128 305 -414
l261 -268 0 -468 c0 -443 -1 -470 -20 -521 -44 -118 -156 -196 -293 -205 -154
-10 -360 71 -478 188 -64 64 -95 114 -134 222 -16 46 -20 50 -109 92 -109 52
-162 105 -209 204 -40 86 -49 217 -23 316 l17 63 -31 59 c-43 83 -60 155 -60
259 0 169 49 289 166 400 l73 71 -2 129 c-2 119 0 135 23 190 56 131 175 276
262 318 29 14 65 30 79 35 15 6 49 43 82 89 130 187 315 296 489 290 66 -2 80
-6 104 -27z m542 4 c102 -34 176 -80 245 -153 89 -93 136 -221 137 -369 0 -61
11 -99 34 -114 24 -16 73 -8 95 16 21 22 23 32 20 114 l-4 90 25 -18 c76 -56
166 -173 208 -273 23 -56 26 -75 27 -193 l0 -131 76 -74 c118 -116 159 -216
159 -384 0 -105 -17 -180 -61 -267 l-31 -62 17 -74 c21 -88 16 -181 -14 -266
-44 -125 -120 -206 -232 -247 -72 -26 -87 -42 -106 -115 -28 -108 -72 -171
-168 -239 -113 -81 -288 -145 -396 -145 -86 0 -79 -40 -79 435 l0 423 206 210
c192 198 207 210 230 202 65 -25 172 -4 222 43 87 81 82 234 -9 312 -43 36
-74 46 -136 47 -141 2 -241 -130 -200 -264 l15 -46 -207 -212 c-113 -117 -214
-226 -224 -244 -16 -29 -17 -63 -15 -444 2 -226 0 -412 -3 -412 -3 0 -26 18
-51 39 -28 25 -55 63 -74 103 l-29 63 -3 610 -3 611 173 177 c209 215 228 245
228 362 0 82 0 83 30 95 17 7 43 28 60 46 104 119 20 304 -138 304 -85 0 -146
-39 -177 -113 -35 -83 -4 -181 72 -226 l44 -26 -5 -74 c-5 -58 -11 -81 -31
-107 -38 -50 -236 -254 -246 -254 -6 0 -9 226 -7 568 3 559 3 568 25 614 30
66 69 88 156 88 47 0 92 -8 145 -26z m72 -574 c12 -12 20 -33 20 -55 0 -69
-76 -100 -125 -50 -30 30 -32 64 -4 99 26 33 79 36 109 6z m-1010 -115 c59
-30 68 -98 21 -146 -48 -48 -116 -38 -147 22 -19 37 -11 79 19 106 39 36 65
40 107 18z m1473 -686 c40 -49 28 -117 -24 -144 -43 -23 -77 -18 -110 14 -41
41 -40 91 1 133 27 27 36 30 73 25 26 -4 48 -14 60 -28z"/>
<path d="M1579 5173 c-45 -23 -59 -37 -81 -82 -40 -78 -33 -149 19 -211 45
-54 97 -73 179 -67 l71 5 211 -211 212 -212 0 -160 c0 -129 3 -165 16 -183 19
-28 57 -29 84 -2 19 19 20 33 20 198 0 154 -2 181 -18 207 -11 17 -116 124
-234 239 l-215 208 14 41 c31 89 -12 188 -99 231 -66 33 -111 33 -179 -1z
m131 -98 c50 -26 57 -94 14 -132 -51 -46 -134 -14 -134 52 0 49 9 66 44 81 40
17 41 17 76 -1z"/>
<path d="M7131 5964 c-43 -36 -58 -89 -38 -137 18 -42 68 -77 112 -77 43 0 94
35 111 75 18 43 18 59 -1 99 -32 67 -127 88 -184 40z"/>
<path d="M4562 5361 l3 -601 235 0 c332 1 439 24 535 117 61 59 85 123 85 223
0 97 -20 153 -73 208 -34 36 -96 72 -122 72 -8 0 -15 5 -15 10 0 6 10 10 22
10 13 0 42 21 73 53 62 64 79 114 74 219 -5 95 -37 159 -103 209 -90 68 -117
73 -434 77 l-283 3 3 -600z m533 399 c56 -27 75 -62 75 -133 0 -59 -23 -104
-71 -140 -31 -22 -169 -40 -278 -35 -65 3 -66 3 -65 31 0 15 1 88 2 161 l2
135 53 4 c113 10 235 0 282 -23z m33 -508 c56 -30 82 -73 82 -138 0 -62 -28
-108 -82 -136 -42 -22 -198 -41 -303 -36 l-70 3 1 33 c0 17 1 93 2 168 l2 136
163 -4 c146 -3 166 -6 205 -26z"/>
<path d="M5903 5633 c-46 -16 -128 -88 -143 -125 -7 -18 -9 -10 -11 37 -1 33
-2 66 -2 73 1 9 -23 12 -88 12 l-89 0 0 -435 0 -435 95 0 95 0 0 248 c0 248 0
248 26 301 16 32 43 64 67 82 53 38 138 63 188 55 l39 -6 0 99 c0 81 -3 100
-16 105 -28 11 -118 5 -161 -11z"/>
<path d="M6390 5635 c-74 -21 -137 -61 -177 -113 -30 -39 -60 -118 -50 -128 2
-3 34 -13 70 -23 36 -11 74 -22 85 -25 16 -5 21 -1 26 25 15 75 112 127 214
115 103 -12 144 -49 150 -135 l4 -58 -68 -6 c-38 -4 -91 -7 -119 -7 -76 -1
-194 -25 -249 -50 -214 -101 -185 -396 46 -465 113 -33 251 -12 333 50 25 19
47 35 50 35 3 0 5 -20 5 -45 l0 -45 103 0 102 0 -2 137 c-2 76 -4 224 -5 328
-3 186 -4 191 -31 248 -33 67 -91 115 -175 148 -75 29 -233 36 -312 14z m327
-531 c-8 -80 -33 -125 -90 -159 -154 -89 -337 -20 -284 107 30 71 142 109 346
117 l34 1 -6 -66z"/>
<path d="M7835 5636 c-57 -18 -82 -33 -131 -78 l-44 -41 0 57 0 56 -90 0 -90
0 0 -435 0 -435 95 0 95 0 0 263 c0 144 4 279 9 300 21 91 94 147 190 147 80
0 136 -38 160 -109 7 -22 11 -132 11 -319 l0 -284 23 6 c12 3 55 6 95 6 l72 0
0 312 c0 376 -5 403 -84 484 -39 40 -64 56 -105 68 -64 19 -150 20 -206 2z"/>
<path d="M7100 5195 l0 -435 100 0 100 0 0 435 0 435 -100 0 -100 0 0 -435z"/>
</g>
</svg>
